<?xml version="1.0" standalone="no"?><!DOCTYPE svg PUBLIC "-//W3C//DTD SVG 1.1//EN" "http://www.w3.org/Graphics/SVG/1.1/DTD/svg11.dtd"><svg t="1629182857650" class="icon" viewBox="0 0 1024 1024" version="1.1" xmlns="http://www.w3.org/2000/svg" p-id="22232" xmlns:xlink="http://www.w3.org/1999/xlink" width="128" height="128"><defs><style type="text/css"></style></defs><path d="M890.581333 797.013333l-94.592 94.592-121.088-33.706666-34.602666 14.250666L578.133333 981.333333h-133.76l-61.824-109.525333-34.56-14.506667-121.088 33.322667-94.549333-94.549333 33.706667-121.088-14.250667-34.602667L42.666667 578.133333v-133.76l109.568-61.824 14.506666-34.56-33.322666-121.088 94.506666-94.506666 121.088 33.749333 34.56-14.250667L445.696 42.666667h133.802667l61.824 109.568 34.56 14.506666 121.045333-33.322666 94.72 94.506666-33.792 121.130667 14.293333 34.56L981.333333 445.738667v133.802666l-109.525333 61.781334-14.506667 34.688 33.28 121.045333z m-123.392-126.805333l37.205334-88.832L896 529.664v-34.304l-91.605333-52.053333-36.650667-88.874667 28.245333-101.333333-24.277333-24.234667-101.674667 27.946667-88.746666-37.205334L529.621333 128h-34.304l-52.053333 91.605333-88.874667 36.650667-101.376-28.288-24.149333 24.149333 27.946667 101.674667-37.205334 88.746667L128 494.208v34.346667l91.52 52.138666 36.650667 88.874667-28.245334 101.376 24.192 24.192 101.674667-27.946667 88.746667 37.205334 51.626666 91.562666h34.346667l52.138667-91.52 88.874666-36.650666 101.376 28.245333 24.234667-24.234667-27.946667-101.589333zM512 682.666667a170.666667 170.666667 0 1 1 0-341.333334 170.666667 170.666667 0 0 1 0 341.333334z m0-85.333334a85.333333 85.333333 0 1 0 0-170.666666 85.333333 85.333333 0 0 0 0 170.666666z" p-id="22233" fill="#ffffff"></path></svg>