<svg t="1629256110134" class="icon" viewBox="0 0 1185 1024" version="1.1" xmlns="http://www.w3.org/2000/svg" p-id="3025" width="128" height="128"><path d="M700.365715 60.074208l468.319709 783.01037a118.307323 118.307323 0 0 1-45.345458 164.539234 127.444603 127.444603 0 0 1-62.324434 16.297089H124.376114A122.739586 122.739586 0 0 1 0 903.567918a117.557248 117.557248 0 0 1 16.706221-60.346963L485.02593 60.210586A126.694528 126.694528 0 0 1 655.020257 16.365278a122.739586 122.739586 0 0 1 45.345458 43.845308zM592.764011 916.046443a80.803561 80.803561 0 1 0-80.80356-80.803561 80.803561 80.803561 0 0 0 80.735372 80.803561z m0-673.567572a95.464122 95.464122 0 0 0-94.373104 106.988006l34.09433 270.640786a61.369793 61.369793 0 0 0 121.103058 0l34.094329-270.640786a95.464122 95.464122 0 0 0-94.373103-106.919818z" p-id="3026" fill="#DB3340"></path></svg>