<svg t="1629268466285" class="icon" viewBox="0 0 1024 1024" version="1.1" xmlns="http://www.w3.org/2000/svg" p-id="18338" width="128" height="128"><path d="M294.314667 0L242.432 119.424H165.418667v107.648h29.653333L225.152 418.133333H178.005333l62.293334 351.146667 40.021333-0.426667 40.192 255.146667h380.501333l2.645334-17.066667 37.546666-238.08 37.888 0.426667 62.293334-351.189333h-45.056l30.08-191.018667h32.256V119.466667h-81.834667L724.906667 0H294.314667z m22.528 34.346667h385.834666l32.896 75.946666H283.818667l33.024-75.946666z m-117.333334 119.338666H824.32v39.253334H199.509333v-39.253334z m19.328 298.581334h581.76l-50.176 282.453333-241.024-2.56-240.469333 2.56-50.090667-282.453333z" p-id="18339" fill="#ffffff"></path></svg>