<svg t="1629269306451" class="icon" viewBox="0 0 1057 1024" version="1.1" xmlns="http://www.w3.org/2000/svg" p-id="15526" width="128" height="128"><path d="M409.012356 811.965935c-108.676129 0.660645-213.058065-41.851871-289.924129-117.991225A401.242839 401.242839 0 0 1 0.006937 406.594065a401.242839 401.242839 0 0 1 119.015226-287.512775A408.344774 408.344774 0 0 1 409.012356 0.990968a408.344774 408.344774 0 0 1 289.924129 118.05729 401.275871 401.275871 0 0 1 119.08129 287.44671 401.275871 401.275871 0 0 1-119.048258 287.380645 408.344774 408.344774 0 0 1-289.891096 118.090322h-0.066065z m0-695.130838A290.617806 290.617806 0 0 0 201.63584 200.836129a285.563871 285.563871 0 0 0-84.69471 205.625806c0 162.221419 128.495484 289.626839 292.071226 289.626839 163.641806 0 292.13729-127.405419 292.13729-289.560774 0-162.221419-128.495484-289.725935-292.071225-289.725935h-0.066065zM957.942421 1005.799226l-173.980904-171.866839a55.130839 55.130839 0 0 1 0-80.235355c23.221677-22.990452 58.004645-22.990452 81.193291 0l173.947871 171.965936a55.130839 55.130839 0 0 1 0 80.235355 56.419097 56.419097 0 0 1-81.160258 0v-0.099097z" p-id="15527" fill="#0f0f0f"></path></svg>